<?xml version="1.0" encoding="UTF-8"?>
<svg id="Design" xmlns="http://www.w3.org/2000/svg" xmlns:xlink="http://www.w3.org/1999/xlink" viewBox="0 0 1080 1080">
  <defs>
    <style>
      .cls-1 {
        fill: url(#linear-gradient-2);
      }

      .cls-2 {
        fill: url(#linear-gradient);
      }

      .cls-3 {
        fill: #181a20;
      }

      .cls-4 {
        fill: #fff;
      }
    </style>
    <linearGradient id="linear-gradient" x1="245.03" y1="587.86" x2="658.51" y2="587.86" gradientUnits="userSpaceOnUse">
      <stop offset="0" stop-color="#6172f3"/>
      <stop offset="1" stop-color="#a3aef1"/>
    </linearGradient>
    <linearGradient id="linear-gradient-2" x1="350.62" y1="500.86" x2="834.97" y2="500.86" xlink:href="#linear-gradient"/>
  </defs>
  <g>
    <circle class="cls-3" cx="540" cy="540.01" r="540"/>
    <path d="M540,1.2c72.74,0,143.3,14.25,209.73,42.34,64.16,27.14,121.78,65.99,171.27,115.47s88.33,107.11,115.47,171.27c28.1,66.43,42.34,136.99,42.34,209.73s-14.25,143.3-42.34,209.73c-27.14,64.16-65.99,121.78-115.47,171.27-49.48,49.48-107.11,88.33-171.27,115.47-66.43,28.1-136.99,42.34-209.73,42.34s-143.3-14.25-209.73-42.34c-64.16-27.14-121.78-65.99-171.27-115.47-49.48-49.48-88.33-107.11-115.47-171.27C15.44,683.31,1.19,612.75,1.19,540.01s14.25-143.3,42.34-209.73c27.14-64.16,65.99-121.78,115.47-171.27s107.11-88.33,171.27-115.47C396.7,15.45,467.26,1.2,540,1.2M540,0C241.76,0,0,241.77,0,540.01s241.77,540,540,540,540-241.77,540-540S838.23,0,540,0h0Z"/>
  </g>
  <g>
    <g>
      <g>
        <path class="cls-4" d="M592.28,723.84h-281.03c-6.59,0-11.94-5.35-11.94-11.94v-248.08c0-6.59,5.35-11.94,11.94-11.94h281.03c6.59,0,11.94,5.35,11.94,11.94v248.08c0,6.59-5.35,11.94-11.94,11.94ZM323.19,699.96h257.15v-224.2h-257.15v224.2Z"/>
        <path class="cls-4" d="M516.59,579.03c-20.08,0-36.42-16.34-36.42-36.42s16.34-36.42,36.42-36.42,36.42,16.34,36.42,36.42-16.34,36.42-36.42,36.42ZM516.59,530.07c-6.92,0-12.54,5.63-12.54,12.54s5.63,12.54,12.54,12.54,12.54-5.63,12.54-12.54-5.63-12.54-12.54-12.54Z"/>
        <path class="cls-4" d="M311.25,687.91c-2.84,0-5.7-1.01-7.98-3.06-4.91-4.41-5.31-11.96-.9-16.86l101.78-113.27c2.24-2.49,5.42-3.93,8.76-3.96.04,0,.08,0,.12,0,3.3,0,6.46,1.37,8.72,3.79l79.4,84.94,24.54-19.75c4.09-3.29,9.86-3.53,14.21-.57l57.47,39.14c5.45,3.71,6.86,11.14,3.15,16.59-3.71,5.45-11.14,6.86-16.59,3.15l-50.16-34.16-26.28,21.15c-4.87,3.92-11.94,3.42-16.21-1.15l-78.08-83.52-93.07,103.58c-2.36,2.62-5.62,3.96-8.88,3.96Z"/>
      </g>
      <path class="cls-2" d="M598.81,779.01h-294.08c-32.92,0-59.7-26.78-59.7-59.7v-262.9c0-32.92,26.78-59.7,59.7-59.7h294.08c32.92,0,59.7,26.78,59.7,59.7v262.9c0,32.92-26.78,59.7-59.7,59.7ZM304.73,420.59c-19.75,0-35.82,16.07-35.82,35.82v262.9c0,19.75,16.07,35.82,35.82,35.82h294.08c19.75,0,35.82-16.07,35.82-35.82v-262.9c0-19.75-16.07-35.82-35.82-35.82h-294.08Z"/>
    </g>
    <g>
      <g>
        <rect class="cls-3" x="362.56" y="289.05" width="460.47" height="423.62" rx="47.76" ry="47.76"/>
        <path class="cls-1" d="M775.27,724.61h-364.96c-32.92,0-59.7-26.78-59.7-59.7v-328.11c0-32.92,26.78-59.7,59.7-59.7h364.96c32.92,0,59.7,26.78,59.7,59.7v328.11c0,32.92-26.78,59.7-59.7,59.7ZM410.32,300.99c-19.75,0-35.82,16.07-35.82,35.82v328.11c0,19.75,16.07,35.82,35.82,35.82h364.96c19.75,0,35.82-16.07,35.82-35.82v-328.11c0-19.75-16.07-35.82-35.82-35.82h-364.96Z"/>
      </g>
      <g>
        <path class="cls-4" d="M758.87,659.41h-332.15c-6.59,0-11.94-5.35-11.94-11.94v-293.21c0-6.59,5.35-11.94,11.94-11.94h332.15c6.59,0,11.94,5.35,11.94,11.94v293.21c0,6.59-5.35,11.94-11.94,11.94ZM438.66,635.53h308.28v-269.33h-308.28v269.33Z"/>
        <path class="cls-4" d="M669.4,488.25c-22.54,0-40.87-18.34-40.87-40.87s18.34-40.87,40.87-40.87,40.87,18.34,40.87,40.87-18.34,40.87-40.87,40.87ZM669.4,430.38c-9.37,0-17,7.62-17,16.99s7.62,16.99,17,16.99,16.99-7.62,16.99-16.99-7.62-16.99-16.99-16.99Z"/>
        <path class="cls-4" d="M426.71,616.94c-2.84,0-5.7-1.01-7.98-3.06-4.91-4.41-5.31-11.96-.9-16.86l120.29-133.87c2.24-2.49,5.42-3.93,8.76-3.96.04,0,.08,0,.12,0,3.3,0,6.46,1.37,8.72,3.79l95.22,101.87,30.57-24.6c4.1-3.29,9.86-3.53,14.21-.57l67.92,46.26c5.45,3.71,6.86,11.14,3.15,16.59-3.71,5.45-11.14,6.86-16.59,3.15l-60.61-41.28-32.31,26.01c-4.87,3.92-11.94,3.42-16.21-1.15l-93.9-100.45-111.58,124.18c-2.36,2.62-5.62,3.96-8.88,3.96Z"/>
      </g>
    </g>
  </g>
</svg>