<?xml version="1.0" encoding="UTF-8"?>
<svg id="Design" xmlns="http://www.w3.org/2000/svg" xmlns:xlink="http://www.w3.org/1999/xlink" viewBox="0 0 1080 1080">
  <defs>
    <style>
      .cls-1 {
        fill: url(#linear-gradient-3);
      }

      .cls-2 {
        fill: url(#linear-gradient-2);
      }

      .cls-3 {
        fill: url(#linear-gradient);
      }

      .cls-4 {
        fill: #181a20;
      }

      .cls-5 {
        fill: #fff;
      }
    </style>
    <linearGradient id="linear-gradient" x1="190.7" y1="401.75" x2="485.17" y2="696.22" gradientUnits="userSpaceOnUse">
      <stop offset="0" stop-color="#6172f3"/>
      <stop offset="1" stop-color="#a3aef1"/>
    </linearGradient>
    <linearGradient id="linear-gradient-2" x1="594.83" x2="889.3" y2="696.22" xlink:href="#linear-gradient"/>
    <linearGradient id="linear-gradient-3" x1="357.08" y1="355" x2="727.09" y2="725" xlink:href="#linear-gradient"/>
  </defs>
  <g>
    <circle class="cls-4" cx="540" cy="540.01" r="540"/>
    <path d="M540,1.2c72.74,0,143.3,14.25,209.73,42.34,64.16,27.14,121.78,65.99,171.27,115.47,49.48,49.48,88.33,107.11,115.47,171.27,28.1,66.43,42.34,136.99,42.34,209.73s-14.25,143.3-42.34,209.73c-27.14,64.16-65.99,121.78-115.47,171.27-49.48,49.48-107.11,88.33-171.27,115.47-66.43,28.1-136.99,42.34-209.73,42.34s-143.3-14.25-209.73-42.34c-64.16-27.14-121.78-65.99-171.27-115.47-49.48-49.48-88.33-107.11-115.47-171.27C15.44,683.31,1.19,612.75,1.19,540.01s14.25-143.3,42.34-209.73c27.14-64.16,65.99-121.78,115.47-171.27,49.48-49.48,107.11-88.33,171.27-115.47C396.7,15.45,467.26,1.2,540,1.2M540,0C241.76,0,0,241.77,0,540.01s241.77,540,540,540,540-241.77,540-540S838.23,0,540,0h0Z"/>
  </g>
  <g>
    <g>
      <path class="cls-3" d="M418.18,738.53h-160.49c-32.92,0-59.7-26.78-59.7-59.7v-259.68c0-32.92,26.78-59.7,59.7-59.7h160.49c32.92,0,59.7,26.78,59.7,59.7v259.68c0,32.92-26.78,59.7-59.7,59.7ZM257.69,383.33c-19.75,0-35.82,16.07-35.82,35.82v259.68c0,19.75,16.07,35.82,35.82,35.82h160.49c19.75,0,35.82-16.07,35.82-35.82v-259.68c0-19.75-16.07-35.82-35.82-35.82h-160.49Z"/>
      <path class="cls-5" d="M364.5,629.65h-53.13c-32.92,0-59.7-26.78-59.7-59.7v-101.23c0-32.92,26.78-59.7,59.7-59.7h53.13c32.92,0,59.7,26.78,59.7,59.7v101.23c0,32.92-26.78,59.7-59.7,59.7ZM311.37,432.9c-19.75,0-35.82,16.07-35.82,35.82v101.23c0,19.75,16.07,35.82,35.82,35.82h53.13c19.75,0,35.82-16.07,35.82-35.82v-101.23c0-19.75-16.07-35.82-35.82-35.82h-53.13Z"/>
      <path class="cls-5" d="M380.34,678.73h-124.8c-6.59,0-11.94-5.35-11.94-11.94s5.35-11.94,11.94-11.94h124.8c6.59,0,11.94,5.35,11.94,11.94s-5.35,11.94-11.94,11.94Z"/>
    </g>
    <g>
      <path class="cls-2" d="M822.31,738.53h-160.49c-32.92,0-59.7-26.78-59.7-59.7v-259.68c0-32.92,26.78-59.7,59.7-59.7h160.49c32.92,0,59.7,26.78,59.7,59.7v259.68c0,32.92-26.78,59.7-59.7,59.7ZM661.82,383.33c-19.75,0-35.82,16.07-35.82,35.82v259.68c0,19.75,16.07,35.82,35.82,35.82h160.49c19.75,0,35.82-16.07,35.82-35.82v-259.68c0-19.75-16.07-35.82-35.82-35.82h-160.49Z"/>
      <path class="cls-5" d="M768.63,629.65h-53.13c-32.92,0-59.7-26.78-59.7-59.7v-101.23c0-32.92,26.78-59.7,59.7-59.7h53.13c32.92,0,59.7,26.78,59.7,59.7v101.23c0,32.92-26.78,59.7-59.7,59.7ZM715.5,432.9c-19.75,0-35.82,16.07-35.82,35.82v101.23c0,19.75,16.07,35.82,35.82,35.82h53.13c19.75,0,35.82-16.07,35.82-35.82v-101.23c0-19.75-16.07-35.82-35.82-35.82h-53.13Z"/>
      <path class="cls-5" d="M784.48,678.73h-124.8c-6.59,0-11.94-5.35-11.94-11.94s5.35-11.94,11.94-11.94h124.8c6.59,0,11.94,5.35,11.94,11.94s-5.35,11.94-11.94,11.94Z"/>
    </g>
    <g>
      <g>
        <rect class="cls-4" x="382.45" y="318.5" width="319.28" height="442.99" rx="47.76" ry="47.76"/>
        <path class="cls-1" d="M653.97,773.43h-223.77c-32.92,0-59.7-26.78-59.7-59.7v-347.48c0-32.92,26.78-59.7,59.7-59.7h223.77c32.92,0,59.7,26.78,59.7,59.7v347.48c0,32.92-26.78,59.7-59.7,59.7ZM430.2,330.44c-19.75,0-35.82,16.07-35.82,35.82v347.48c0,19.75,16.07,35.82,35.82,35.82h223.77c19.75,0,35.82-16.07,35.82-35.82v-347.48c0-19.75-16.07-35.82-35.82-35.82h-223.77Z"/>
      </g>
      <path class="cls-5" d="M597.36,637.64h-110.55c-32.92,0-59.7-26.78-59.7-59.7v-158.8c0-32.92,26.78-59.7,59.7-59.7h110.55c32.92,0,59.7,26.78,59.7,59.7v158.8c0,32.92-26.78,59.7-59.7,59.7ZM486.81,383.33c-19.75,0-35.82,16.07-35.82,35.82v158.8c0,19.75,16.07,35.82,35.82,35.82h110.55c19.75,0,35.82-16.07,35.82-35.82v-158.8c0-19.75-16.07-35.82-35.82-35.82h-110.55Z"/>
      <path class="cls-5" d="M594.98,698.86h-155.65c-6.59,0-11.94-5.35-11.94-11.94s5.35-11.94,11.94-11.94h155.65c6.59,0,11.94,5.35,11.94,11.94s-5.35,11.94-11.94,11.94Z"/>
    </g>
  </g>
</svg>