<?xml version="1.0" encoding="UTF-8"?>
<svg id="Design" xmlns="http://www.w3.org/2000/svg" xmlns:xlink="http://www.w3.org/1999/xlink" viewBox="0 0 1080 1080">
  <defs>
    <style>
      .cls-1 {
        fill: url(#linear-gradient);
      }

      .cls-2 {
        fill: #181a20;
      }

      .cls-3 {
        fill: #fff;
      }
    </style>
    <linearGradient id="linear-gradient" x1="282.59" y1="550.74" x2="813.07" y2="550.74" gradientUnits="userSpaceOnUse">
      <stop offset="0" stop-color="#6172f3"/>
      <stop offset="1" stop-color="#a3aef1"/>
    </linearGradient>
  </defs>
  <g>
    <circle class="cls-2" cx="540" cy="540.01" r="540"/>
    <path d="M540,1.2c72.74,0,143.3,14.25,209.73,42.34,64.16,27.14,121.78,65.99,171.27,115.47,49.48,49.48,88.33,107.11,115.47,171.27,28.1,66.43,42.34,136.99,42.34,209.73s-14.25,143.3-42.34,209.73c-27.14,64.16-65.99,121.78-115.47,171.27-49.48,49.48-107.11,88.33-171.27,115.47-66.43,28.1-136.99,42.34-209.73,42.34s-143.3-14.25-209.73-42.34c-64.16-27.14-121.78-65.99-171.27-115.47-49.48-49.48-88.33-107.11-115.47-171.27C15.44,683.31,1.19,612.75,1.19,540.01s14.25-143.3,42.34-209.73c27.14-64.16,65.99-121.78,115.47-171.27,49.48-49.48,107.11-88.33,171.27-115.47C396.7,15.45,467.26,1.2,540,1.2M540,0C241.76,0,0,241.77,0,540.01s241.77,540,540,540,540-241.77,540-540S838.23,0,540,0h0Z"/>
  </g>
  <g>
    <path class="cls-1" d="M524.53,309.38c11.33,0,21.99,4.41,30.01,12.43l222.22,222.22c8.02,8.02,12.44,18.68,12.44,30.02s-4.41,21.97-12.44,29.98l-175.64,175.64c-8.02,8.02-18.68,12.44-30.02,12.44s-21.97-4.41-29.98-12.44l-222.22-222.22c-8.02-8.02-12.43-18.67-12.43-30.01v-175.63c0-23.4,19.04-42.43,42.43-42.43h175.63M524.53,285.5h-175.63c-36.62,0-66.31,29.69-66.31,66.31v175.63c0,17.59,6.99,34.45,19.42,46.89l222.22,222.22c12.93,12.95,29.9,19.43,46.87,19.43s33.95-6.48,46.9-19.43l175.64-175.64c25.91-25.86,25.91-67.86,0-93.77l-222.22-222.22c-12.44-12.44-29.3-19.42-46.89-19.42h0Z"/>
    <path class="cls-3" d="M400.73,392.6c9.44,0,17.13,7.68,17.13,17.13s-7.68,17.13-17.13,17.13-17.13-7.68-17.13-17.13,7.68-17.13,17.13-17.13M400.73,368.72c-22.65,0-41,18.36-41,41s18.36,41,41,41,41-18.36,41-41-18.36-41-41-41h0Z"/>
    <path class="cls-3" d="M616.36,589.13c0,27.96-15.44,49.45-45.38,55.79v16.27c0,7.86-6.37,14.23-14.23,14.23h0c-7.86,0-14.23-6.37-14.23-14.23v-14.91c-11.7-1.39-24.93-5.37-36.57-11.8-8.54-4.72-11.29-15.7-6-23.9l.7-1.08c4.81-7.46,14.65-10,22.36-5.6,9.71,5.54,18.91,8.36,28.5,8.36,16.54,0,23.81-6.87,23.81-20.14,0-30-76.98-29.45-76.98-82.08,0-28.58,16.73-48.4,44.19-53.86v-15.88c0-7.86,6.37-14.23,14.23-14.23h0c7.86,0,14.23,6.37,14.23,14.23v15.26c11.4,1.72,20.92,5.84,29.18,11.56,8.25,5.7,9.64,17.36,3.04,24.92h0c-5.44,6.24-14.6,7.57-21.63,3.21-6.38-3.95-12.83-6-20.55-6-14.03,0-21.65,5.66-21.65,18.76,0,27.82,76.98,25.38,76.98,81.13Z"/>
  </g>
</svg>