<?xml version="1.0" encoding="UTF-8"?>
<svg id="Design" xmlns="http://www.w3.org/2000/svg" xmlns:xlink="http://www.w3.org/1999/xlink" viewBox="0 0 1080 1080">
  <defs>
    <style>
      .cls-1 {
        fill: url(#linear-gradient);
      }

      .cls-2 {
        fill: #181a20;
      }

      .cls-3 {
        fill: #fff;
      }
    </style>
    <linearGradient id="linear-gradient" x1="292.97" y1="516.3" x2="786.76" y2="516.3" gradientUnits="userSpaceOnUse">
      <stop offset="0" stop-color="#6172f3"/>
      <stop offset="1" stop-color="#a3aef1"/>
    </linearGradient>
  </defs>
  <g>
    <circle class="cls-2" cx="540" cy="540.01" r="540"/>
    <path d="M540,1.2c72.74,0,143.3,14.25,209.73,42.34,64.16,27.14,121.78,65.99,171.27,115.47,49.48,49.48,88.33,107.11,115.47,171.27,28.1,66.43,42.34,136.99,42.34,209.73s-14.25,143.3-42.34,209.73c-27.14,64.16-65.99,121.78-115.47,171.27-49.48,49.48-107.11,88.33-171.27,115.47-66.43,28.1-136.99,42.34-209.73,42.34s-143.3-14.25-209.73-42.34c-64.16-27.14-121.78-65.99-171.27-115.47-49.48-49.48-88.33-107.11-115.47-171.27C15.44,683.31,1.19,612.75,1.19,540.01s14.25-143.3,42.34-209.73c27.14-64.16,65.99-121.78,115.47-171.27,49.48-49.48,107.11-88.33,171.27-115.47C396.7,15.45,467.26,1.2,540,1.2M540,0C241.76,0,0,241.77,0,540.01s241.77,540,540,540,540-241.77,540-540S838.23,0,540,0h0Z"/>
  </g>
  <g>
    <path class="cls-1" d="M692.13,790.93h-305.66c-24.99,0-48.48-9.73-66.14-27.39-17.67-17.67-27.39-41.15-27.36-66.13l1.2-210.49c.19-32.73,26.96-59.36,59.7-59.36h35.04v-34.79c0-40.37,15.72-78.32,44.26-106.85,28.51-28.54,66.45-44.26,106.83-44.26,83.33,0,151.12,67.78,151.12,151.1v34.79h35.96c16.01,0,31.04,6.25,42.33,17.6,11.29,11.35,17.46,26.42,17.36,42.43l-1.2,209.89c0,24.92-9.73,48.41-27.39,66.08-17.65,17.65-41.1,27.36-66.04,27.36ZM353.86,451.44c-19.64,0-35.71,15.98-35.82,35.61l-1.2,210.43c-.02,18.53,7.22,36.01,20.37,49.16s30.65,20.4,49.26,20.4h305.64c18.58,0,36.03-7.23,49.17-20.37,13.15-13.16,20.4-30.65,20.4-49.26l1.2-209.96c.05-9.61-3.65-18.65-10.42-25.46-6.77-6.81-15.79-10.56-25.4-10.56h-47.6c-.19,0-.39,0-.58,0h-277.75c-.19,0-.39,0-.58,0h-46.69ZM412.78,427.56h254.45v-34.79c0-70.15-57.08-127.22-127.24-127.22-34,0-65.94,13.23-89.94,37.26-24.03,24.02-37.27,55.97-37.27,89.97v34.79Z"/>
    <g>
      <path class="cls-3" d="M571.83,705.01h-65.79c-3.35,0-6.55-1.41-8.81-3.88-2.26-2.47-3.38-5.78-3.09-9.12l6.78-76.5c.58-6.57,6.36-11.41,12.95-10.84,6.57.58,11.42,6.38,10.84,12.95l-5.63,63.5h39.7l-5.63-63.51c-.58-6.57,4.27-12.36,10.84-12.95,6.55-.58,12.36,4.27,12.95,10.84l6.78,76.51c.3,3.34-.82,6.64-3.09,9.12-2.26,2.47-5.46,3.88-8.81,3.88Z"/>
      <path class="cls-3" d="M512.81,628.52c-2.1,0-4.23-.56-6.17-1.72-18.94-11.45-30.25-31.48-30.25-53.57,0-34.48,28.05-62.54,62.53-62.54s62.54,28.05,62.54,62.54c0,22.09-11.3,42.11-30.24,53.56-5.65,3.41-12.98,1.6-16.39-4.04-3.41-5.64-1.6-12.98,4.04-16.39,11.72-7.08,18.71-19.47,18.71-33.12,0-21.32-17.34-38.66-38.66-38.66s-38.65,17.34-38.65,38.66c0,13.66,7,26.05,18.73,33.13,5.64,3.41,7.45,10.75,4.04,16.39-2.24,3.71-6.19,5.76-10.23,5.76Z"/>
    </g>
  </g>
</svg>