<?xml version="1.0" encoding="UTF-8"?>
<svg id="Design" xmlns="http://www.w3.org/2000/svg" xmlns:xlink="http://www.w3.org/1999/xlink" viewBox="0 0 1080 1080">
  <defs>
    <style>
      .cls-1 {
        fill: url(#linear-gradient-3);
      }

      .cls-2 {
        fill: url(#linear-gradient-2);
      }

      .cls-3 {
        fill: url(#linear-gradient);
      }

      .cls-4 {
        fill: #181a20;
      }

      .cls-5 {
        fill: #fff;
      }
    </style>
    <linearGradient id="linear-gradient" x1="255.34" y1="539.45" x2="823.56" y2="539.45" gradientUnits="userSpaceOnUse">
      <stop offset="0" stop-color="#6172f3"/>
      <stop offset="1" stop-color="#a3aef1"/>
    </linearGradient>
    <linearGradient id="linear-gradient-2" x1="558.43" y1="669.15" x2="867.25" y2="669.15" xlink:href="#linear-gradient"/>
    <linearGradient id="linear-gradient-3" x1="994.74" y1="-4773.85" x2="1043.59" y2="-4773.85" gradientTransform="translate(4743.88 -1985.85) rotate(-135)" xlink:href="#linear-gradient"/>
  </defs>
  <g>
    <circle class="cls-4" cx="540" cy="540.01" r="540"/>
    <path d="M540,1.2c72.74,0,143.3,14.25,209.73,42.34,64.16,27.14,121.78,65.99,171.27,115.47s88.33,107.11,115.47,171.27c28.1,66.43,42.34,136.99,42.34,209.73s-14.25,143.3-42.34,209.73c-27.14,64.16-65.99,121.78-115.47,171.27-49.48,49.48-107.11,88.33-171.27,115.47-66.43,28.1-136.99,42.34-209.73,42.34s-143.3-14.25-209.73-42.34c-64.16-27.14-121.78-65.99-171.27-115.47-49.48-49.48-88.33-107.11-115.47-171.27C15.44,683.31,1.19,612.75,1.19,540.01s14.25-143.3,42.34-209.73c27.14-64.16,65.99-121.78,115.47-171.27,49.48-49.48,107.11-88.33,171.27-115.47C396.7,15.45,467.26,1.2,540,1.2M540,0C241.76,0,0,241.77,0,540.01s241.77,540,540,540,540-241.77,540-540S838.23,0,540,0h0Z"/>
  </g>
  <g>
    <path class="cls-3" d="M539.45,823.56c-75.89,0-147.24-29.55-200.9-83.21-53.66-53.66-83.21-125.01-83.21-200.9s29.55-147.24,83.21-200.9c53.66-53.66,125.01-83.21,200.9-83.21s147.24,29.55,200.9,83.21c53.66,53.66,83.21,125.01,83.21,200.9s-29.55,147.23-83.21,200.9c-53.66,53.66-125.01,83.21-200.9,83.21ZM539.45,279.22c-69.51,0-134.86,27.07-184.01,76.22-49.15,49.15-76.22,114.5-76.22,184.01s27.07,134.86,76.22,184.01c49.15,49.15,114.5,76.22,184.01,76.22s134.86-27.07,184.01-76.22c49.15-49.15,76.22-114.5,76.22-184.01s-27.07-134.86-76.22-184.01c-49.15-49.15-114.5-76.22-184.01-76.22Z"/>
    <path class="cls-5" d="M622.14,592.74c0,38.82-21.43,68.66-63.01,77.46v22.59c0,10.91-8.85,19.76-19.76,19.76h0c-10.91,0-19.76-8.85-19.76-19.76v-20.7c-16.24-1.93-34.61-7.46-50.78-16.39-11.86-6.55-15.67-21.8-8.32-33.19l.97-1.5c6.69-10.36,20.33-13.89,31.04-7.77,13.48,7.69,26.25,11.6,39.58,11.6,22.96,0,33.05-9.53,33.05-27.97,0-41.66-106.89-40.9-106.89-113.97,0-39.69,23.22-67.2,61.35-74.78v-22.05c0-10.91,8.85-19.76,19.76-19.76h0c10.91,0,19.76,8.85,19.76,19.76v21.19c15.82,2.38,29.04,8.11,40.52,16.05,11.45,7.92,13.38,24.1,4.22,34.59h0c-7.56,8.66-20.27,10.51-30.04,4.46-8.86-5.49-17.81-8.32-28.53-8.32-19.48,0-30.05,7.86-30.05,26.04,0,38.62,106.89,35.24,106.89,112.64Z"/>
  </g>
  <g>
    <g>
      <circle class="cls-4" cx="712.84" cy="669.15" r="142.47"/>
      <path class="cls-2" d="M712.84,823.56c-85.14,0-154.41-69.27-154.41-154.41s69.27-154.41,154.41-154.41,154.41,69.27,154.41,154.41-69.27,154.41-154.41,154.41ZM712.84,538.63c-71.97,0-130.53,58.56-130.53,130.53s58.56,130.53,130.53,130.53,130.53-58.56,130.53-130.53-58.56-130.53-130.53-130.53Z"/>
    </g>
    <g>
      <path class="cls-1" d="M648.29,700.48c-1.47,0-2.94-.54-4.09-1.62l-22.11-20.79s-.09-.09-.13-.13c-4.89-4.89-4.89-12.85,0-17.74.05-.05.1-.1.15-.14l22.11-20.63c2.41-2.25,6.19-2.12,8.44.29,2.25,2.41,2.12,6.19-.29,8.44l-21.99,20.52c-.19.23-.19.56,0,.79l22.01,20.7c2.4,2.26,2.52,6.04.26,8.44-1.18,1.25-2.76,1.88-4.35,1.88Z"/>
      <g>
        <path class="cls-5" d="M676.04,697.09v-43.5l-9.9,2.63v-8.62l14.53-6.38h6.54v55.87h-11.17Z"/>
        <path class="cls-5" d="M720.81,698.05c-5.06,0-9.42-1.22-13.09-3.67-3.67-2.45-6.48-5.84-8.42-10.18-1.94-4.34-2.91-9.35-2.91-15.04s.97-10.71,2.91-15.04c1.94-4.34,4.73-7.73,8.38-10.18,3.64-2.45,8.02-3.67,13.13-3.67s9.48,1.22,13.13,3.67c3.64,2.45,6.44,5.84,8.38,10.18,1.94,4.34,2.91,9.35,2.91,15.04s-.97,10.71-2.91,15.04c-1.94,4.34-4.74,7.73-8.38,10.18-3.65,2.45-8.02,3.67-13.13,3.67ZM720.81,688.39c2.66,0,5-.78,7.02-2.35,2.02-1.57,3.6-3.79,4.75-6.66,1.14-2.87,1.72-6.28,1.72-10.22s-.57-7.41-1.72-10.26c-1.14-2.85-2.73-5.04-4.75-6.58-2.02-1.54-4.36-2.31-7.02-2.31s-5,.77-7.02,2.31c-2.02,1.54-3.61,3.74-4.75,6.58-1.14,2.85-1.72,6.27-1.72,10.26s.57,7.34,1.72,10.22c1.14,2.87,2.73,5.1,4.75,6.66,2.02,1.57,4.36,2.35,7.02,2.35Z"/>
        <path class="cls-5" d="M777,698.05c-5.06,0-9.42-1.22-13.09-3.67-3.67-2.45-6.48-5.84-8.42-10.18-1.94-4.34-2.91-9.35-2.91-15.04s.97-10.71,2.91-15.04c1.94-4.34,4.73-7.73,8.38-10.18,3.64-2.45,8.02-3.67,13.13-3.67s9.48,1.22,13.13,3.67c3.64,2.45,6.44,5.84,8.38,10.18,1.94,4.34,2.91,9.35,2.91,15.04s-.97,10.71-2.91,15.04c-1.94,4.34-4.74,7.73-8.38,10.18-3.65,2.45-8.02,3.67-13.13,3.67ZM777,688.39c2.66,0,5-.78,7.02-2.35,2.02-1.57,3.6-3.79,4.75-6.66,1.14-2.87,1.72-6.28,1.72-10.22s-.57-7.41-1.72-10.26c-1.14-2.85-2.73-5.04-4.75-6.58-2.02-1.54-4.36-2.31-7.02-2.31s-5,.77-7.02,2.31c-2.02,1.54-3.61,3.74-4.75,6.58-1.14,2.85-1.72,6.27-1.72,10.26s.57,7.34,1.72,10.22c1.14,2.87,2.73,5.1,4.75,6.66,2.02,1.57,4.36,2.35,7.02,2.35Z"/>
      </g>
    </g>
  </g>
</svg>