<?xml version="1.0" encoding="UTF-8"?>
<svg id="Design" xmlns="http://www.w3.org/2000/svg" xmlns:xlink="http://www.w3.org/1999/xlink" viewBox="0 0 1080 1080">
  <defs>
    <style>
      .cls-1 {
        fill: url(#linear-gradient);
      }

      .cls-2 {
        fill: #181a20;
      }

      .cls-3 {
        fill: #fff;
      }
    </style>
    <linearGradient id="linear-gradient" x1="504.64" y1="629.44" x2="721.89" y2="412.19" gradientUnits="userSpaceOnUse">
      <stop offset="0" stop-color="#6172f3"/>
      <stop offset="1" stop-color="#a3aef1"/>
    </linearGradient>
  </defs>
  <g>
    <circle class="cls-2" cx="540" cy="540.01" r="540"/>
    <path d="M540,1.2c72.74,0,143.3,14.25,209.73,42.34,64.16,27.14,121.78,65.99,171.27,115.47,49.48,49.48,88.33,107.11,115.47,171.27,28.1,66.43,42.34,136.99,42.34,209.73s-14.25,143.3-42.34,209.73c-27.14,64.16-65.99,121.78-115.47,171.27-49.48,49.48-107.11,88.33-171.27,115.47-66.43,28.1-136.99,42.34-209.73,42.34s-143.3-14.25-209.73-42.34c-64.16-27.14-121.78-65.99-171.27-115.47-49.48-49.48-88.33-107.11-115.47-171.27C15.44,683.31,1.19,612.75,1.19,540.01s14.25-143.3,42.34-209.73c27.14-64.16,65.99-121.78,115.47-171.27,49.48-49.48,107.11-88.33,171.27-115.47C396.7,15.45,467.26,1.2,540,1.2M540,0C241.76,0,0,241.77,0,540.01s241.77,540,540,540,540-241.77,540-540S838.23,0,540,0h0Z"/>
  </g>
  <g>
    <path class="cls-3" d="M614.52,791.23h-320.45c-6.59,0-11.94-5.35-11.94-11.94v-44.79c0-13.17,10.71-23.88,23.88-23.88h296.57c13.17,0,23.88,10.71,23.88,23.88v44.79c0,6.59-5.35,11.94-11.94,11.94ZM306.01,767.35h296.57v-32.85h-296.57v32.85Z"/>
    <path class="cls-3" d="M575.85,734.5h-243.11c-6.59,0-11.94-5.35-11.94-11.94v-35.87c0-13.17,10.71-23.88,23.88-23.88h219.23c13.17,0,23.88,10.71,23.88,23.88v35.87c0,6.59-5.35,11.94-11.94,11.94ZM344.68,710.62h219.23v-23.93h-219.23v23.93Z"/>
    <path class="cls-1" d="M760.98,734.93c-.42,0-.83,0-1.25-.01-21.31-.37-42.45-10.15-58.01-26.82-.09-.09-.17-.19-.26-.29l-181.25-207.3-6.94,6.94c6.83,17.31,3.25,37.81-10.72,51.78-18.78,18.78-49.33,18.78-68.11,0l-90.16-90.16c-18.78-18.78-18.78-49.33,0-68.11,9.1-9.1,21.19-14.11,34.06-14.11,9.53,0,18.65,2.75,26.43,7.88l83.3-83.3c-9.45-18.15-6.56-41.1,8.66-56.32,18.78-18.78,49.33-18.78,68.11,0l90.16,90.16c18.78,18.78,18.78,49.33,0,68.11-9.1,9.1-21.19,14.11-34.06,14.11-7.89,0-15.48-1.88-22.27-5.43l-8.95,8.94,207.3,181.25c.1.08.19.17.29.26,16.68,15.55,26.45,36.7,26.82,58.01.31,17.93-6.1,34.38-18.05,46.34h0c-11.68,11.68-27.65,18.07-45.09,18.07ZM719.31,691.94c11.15,11.89,26.02,18.85,40.84,19.1,11.4.18,21.71-3.73,29.04-11.06h0c7.33-7.33,11.26-17.65,11.06-29.04-.26-14.81-7.22-29.69-19.1-40.84l-208.35-182.17-35.66,35.66,182.17,208.35ZM797.63,708.42h.01-.01ZM378.33,410.74c-6.49,0-12.58,2.53-17.17,7.11-4.59,4.59-7.11,10.68-7.11,17.17s2.53,12.58,7.11,17.17l90.16,90.16c9.47,9.47,24.87,9.47,34.34,0,9.42-9.42,9.47-24.72.14-34.2l-90.3-90.3c-4.59-4.59-10.68-7.11-17.17-7.11ZM457.31,445.89l41.88,41.88,80.88-80.88-76.85-76.85-80.88,80.88,34.97,34.97ZM530.77,264.9c-6.22,0-12.44,2.37-17.17,7.1-9.47,9.47-9.47,24.87,0,34.34l90.16,90.16c4.59,4.59,10.68,7.11,17.17,7.11s12.58-2.53,17.17-7.11c4.59-4.59,7.11-10.68,7.11-17.17s-2.53-12.58-7.11-17.17l-90.16-90.16c-4.73-4.73-10.95-7.1-17.17-7.1Z"/>
  </g>
</svg>